<?xml version="1.0" encoding="utf-8"?>
<!-- Generator: Adobe Illustrator 16.0.0, SVG Export Plug-In . SVG Version: 6.00 Build 0)  -->
<!DOCTYPE svg PUBLIC "-//W3C//DTD SVG 1.1//EN" "http://www.w3.org/Graphics/SVG/1.1/DTD/svg11.dtd">
<svg version="1.1" id="Layer_1" xmlns="http://www.w3.org/2000/svg" xmlns:xlink="http://www.w3.org/1999/xlink" x="0px" y="0px"
	 width="100px" height="100px" viewBox="0 0 100 100" enable-background="new 0 0 100 100" xml:space="preserve">
<g id="Layer_2">
	<circle fill="#FFFFFF" cx="50.238" cy="50.92" r="36.579"/>
</g>
<path fill="#3D599F" d="M49.642,2.72C23.331,2.72,2,24.055,2,50.361C2,76.674,23.331,98,49.642,98s47.643-21.326,47.643-47.639
	C97.285,24.055,75.953,2.72,49.642,2.72z M62.256,50.162h-8.25c0,13.184,0,29.42,0,29.42h-12.23c0,0,0-16.07,0-29.42h-5.814V39.773
	h5.814v-6.729c0-4.818,2.288-12.338,12.34-12.338l9.055,0.034v10.09c0,0-5.506,0-6.575,0c-1.068,0-2.589,0.536-2.589,2.826v6.117
	h9.318L62.256,50.162z"/>
</svg>
