<?xml version="1.0" encoding="utf-8"?>
<!-- Generator: Adobe Illustrator 16.0.0, SVG Export Plug-In . SVG Version: 6.00 Build 0)  -->
<!DOCTYPE svg PUBLIC "-//W3C//DTD SVG 1.1//EN" "http://www.w3.org/Graphics/SVG/1.1/DTD/svg11.dtd">
<svg version="1.1" id="Layer_1" xmlns="http://www.w3.org/2000/svg" xmlns:xlink="http://www.w3.org/1999/xlink" x="0px" y="0px"
	 width="100px" height="100px" viewBox="0 0 100 100" enable-background="new 0 0 100 100" xml:space="preserve">
<g id="Layer_2">
	<circle fill="#FFFFFF" cx="52.238" cy="48.92" r="36.579"/>
</g>
<path fill="#D95331" d="M50.333,2.044c-26.304,0-47.625,21.327-47.625,47.625c0,26.302,21.321,47.621,47.625,47.621
	c26.302,0,47.625-21.319,47.625-47.621C97.958,23.371,76.635,2.044,50.333,2.044z M74.784,60.914v12.054H74.78l0.004,1.092
	c-11.69,5.904-31.104,7.584-42.298,0.033C25.704,69.52,19.02,60.427,19.385,48.921c0.347-10.924,7.43-20.704,17.171-25.629
	c11.2-5.667,28.105-4.594,37.96,3.565l-5.807,5.919l-3.762,1.069l1.998-3.634c-2.871-2.893-6.168-4.986-9.803-6.149
	c-5.791-1.851-11.134-0.827-15.588,1.353c-9.122,4.465-14.516,15.283-12.423,26.724c2.21,12.058,11.537,21.728,23.771,22.744
	c3.607,0.306,7.551,0.125,11.045-0.798c2.485-0.801,2.466-1.042,2.466-2.549V60.914L54.16,61.276l6.312-3.555h17.032L74.784,60.914z
	"/>
</svg>
