<?xml version="1.0" encoding="utf-8"?>
<!-- Generator: Adobe Illustrator 16.0.0, SVG Export Plug-In . SVG Version: 6.00 Build 0)  -->
<!DOCTYPE svg PUBLIC "-//W3C//DTD SVG 1.1//EN" "http://www.w3.org/Graphics/SVG/1.1/DTD/svg11.dtd">
<svg version="1.1" id="Layer_1" xmlns="http://www.w3.org/2000/svg" xmlns:xlink="http://www.w3.org/1999/xlink" x="0px" y="0px"
	 width="100px" height="100px" viewBox="0 0 100 100" enable-background="new 0 0 100 100" xml:space="preserve">
<circle fill="#FFFFFF" cx="50.238" cy="49.92" r="36.579"/>
<path fill="#30A8E0" d="M50.119,0.755c-26.999,0-48.888,21.893-48.888,48.888c0,27,21.889,48.884,48.888,48.884
	s48.883-21.885,48.883-48.884C99.002,22.647,77.117,0.755,50.119,0.755z M77.113,50.197c-0.59,2.985-2.071,6.103-4.426,9.368
	C67.59,65.8,61.404,69.918,54.104,71.923h-0.127c-7.518,2.024-15.056,1.851-22.598-0.522c-6.579-2.486-11.895-6.453-15.902-11.94
	c3.986,3.138,7.669,4.704,11.111,4.724l0.087-0.039c5.642,0.373,10.458-1.396,14.446-5.319c0.021-0.021,0.044-0.038,0.064-0.062
	l-0.128-0.152c-2.311,0.104-3.882-0.594-4.752-2.094c-0.241-1.004,0-1.877,0.74-2.617c0.413-0.478,1.047-0.914,1.852-1.307
	c-4.073,0.108-6.882-1.307-8.476-4.266c1.221-1.311,2.788-1.939,4.686-1.834l0.021-0.062c-4.837-1.311-7.386-3.665-7.625-7.084
	c1.243-0.368,2.526-0.566,3.856-0.543v-0.066c-3.769-2.136-5.665-5.075-5.644-8.763c3.465,1.074,6.885,2.443,10.262,4.099
	c3.094,1.307,5.773,2.656,8.061,4.071c1.941,1.094,3.552,2.443,4.903,4.056l0.066-0.066l0.347-0.256
	c0.938-3.556,2.505-7.042,4.75-10.504l0.047-0.112c0.867-1.26,2.004-2.652,3.416-4.161c0.679-0.675,1.461-1.307,2.356-1.892
	c0.175,0.108-0.089,0.717-0.786,1.85c1.877-1.59,3.659-2.393,5.315-2.439c0.372,0.368-0.283,1.089-1.958,2.113
	c1.324-0.504,2.807-0.83,4.42-1.024c0.697,0.085,0.938,0.431,0.74,1.066c-0.565,0.783-2.463,1.504-5.665,2.203
	c-0.019,0-0.042,0-0.062,0.019l0.108,0.241c3.527-0.136,6.6,0.981,9.217,3.311c0.043,0.047,0.085,0.085,0.128,0.109
	c3.095,2.985,4.882,6.274,5.382,9.896c2.745,0.977,5.514,0.958,8.325-0.093c-0.764,2.055-3.137,3.288-7.169,3.73
	c-0.023-0.027-0.023-0.027-0.023,0v0.392c3.685,0.721,6.17,0.85,7.43,0.411l0.047,0.07C83.67,49.286,80.925,50.329,77.113,50.197z"
	/>
</svg>
